<svg width="68" height="54" viewBox="0 0 68 54" fill="none" xmlns="http://www.w3.org/2000/svg">
<path d="M26 49.8764H23V13.8764C23 12.7764 22.1 11.8764 21 11.8764H9C7.9 11.8764 7 12.7764 7 13.8764V49.8764H2C0 49.8764 0 49.8764 0 51.8764C0 53.8764 0 53.8764 2 53.8764H66C68 53.8764 68 53.8764 68 51.8764C68 49.8764 68 49.9764 66 49.8764H61V35.8764C61 34.7764 60.1 33.8764 59 33.8764H47C45.9 33.8764 45 34.7764 45 35.8764V49.8764H42V26.8764C42 25.7764 41.1 24.8764 40 24.8764H28C26.9 24.8764 26 25.7764 26 26.8764V49.8764Z" fill="#1F64FF"/>
<path d="M62.9999 22.9764C63.1999 22.5764 63.2999 22.1764 63.0999 21.7764L60.6999 14.6764C60.3999 13.8764 59.4999 13.4764 58.6999 13.6764C57.8999 13.9764 57.4999 14.8764 57.6999 15.6764L58.8999 19.1764L20.8999 0.176405C20.0999 -0.223595 19.1999 0.0764046 18.7999 0.876405C18.3999 1.6764 18.6999 2.5764 19.4999 2.9764L57.6999 22.0764L54.0999 23.2764C53.2999 23.5764 52.7999 24.3764 53.0999 25.2764C53.1999 25.6764 53.4999 25.9764 53.8999 26.1764C54.2999 26.3764 54.6999 26.3764 55.0999 26.2764L62.1999 23.9764C62.4999 23.6764 62.7999 23.3764 62.9999 22.9764Z" fill="#1F64FF"/>
</svg>
